inDegrees=yes
name=ik_S54_A01_T03
DataType=double
version=3
OpenSimVersion=4.3-2021-08-27-4bc7ad9
endheader
time	pelvis_tilt	pelvis_list	pelvis_rotation	pelvis_tx	pelvis_ty	pelvis_tz	hip_flexion_r	hip_adduction_r	hip_rotation_r	knee_angle_r	knee_angle_r_beta	ankle_angle_r	subtalar_angle_r	mtp_angle_r	hip_flexion_l	hip_adduction_l	hip_rotation_l	knee_angle_l	knee_angle_l_beta	ankle_angle_l	subtalar_angle_l	mtp_angle_l	lumbar_extension	lumbar_bending	lumbar_rotation	arm_flex_r	arm_add_r	arm_rot_r	elbow_flex_r	pro_sup_r	wrist_flex_r	wrist_dev_r	arm_flex_l	arm_add_l	arm_rot_l	elbow_flex_l	pro_sup_l	wrist_flex_l	wrist_dev_l
11.71999999999984	-0.4313635703163216	0.9192890546272432	-48.97130760855546	0	0.9399999999999999	0	1.561086732265191	1.006871558052573	-26.28284647091729	15.35282625387562	0.2679573676167563	0	0	0	3.109864165951746	1.415636673336498	-26.2510613694183	-1.390247193846055	-0.02426439094922551	0	0	0	0	0	0	33.79836546041813	-33.7983654604181	4.573532172964045	81.59365626335673	85.4264680823529	0	0	33.79836546041813	-33.7983654604181	4.573532172964045	81.59365626335673	85.42646808227376	0	0
11.73999999999984	-0.2071066129119266	0.9050699488503385	-52.0094449757281	0	0.9399999999999999	0	1.871435650126504	1.309273325984773	-26.12170257443288	14.40480661664686	0.2514113035735522	0	0	0	3.073600269285241	1.669642050073535	-27.31503594237669	-1.479026940665008	-0.0258138898403032	0	0	0	0	0	0	33.82476473499433	-33.82476473499429	4.575265748025177	81.60751221844758	85.42473450737518	0	0	33.82476473499433	-33.82476473499429	4.575265748025177	81.60751221844758	85.42473450729631	0	0
11.75999999999984	0.1129309255219717	0.908194925527863	-54.75015623643939	0	0.9399999999999999	0	2.173006837431423	1.386086820493718	-26.15387998901396	13.16650157017912	0.2297988033686288	0	0	0	2.977735750105006	1.750876628139097	-29.97384404368482	-0.9417888856369244	-0.01643731691305267	0	0	0	0	0	0	33.85990203990183	-33.85990203990179	4.577601456555882	81.62618174175043	85.42239879895702	0	0	33.85990203990183	-33.85990203990179	4.577601456555882	81.62618174175043	85.42239879887863	0	0
11.77999999999984	0.5030977220895547	0.9179481468599912	-57.33962725962753	0	0.9399999999999999	0	2.388313289139079	1.111089875637034	-25.62065299379082	13.89751063128207	0.2425573183467878	0	0	0	2.921973756282843	2.090604019374353	-30.57282951452639	-1.232164714942203	-0.02150533120263881	0	0	0	0	0	0	33.88808599754935	-33.88808599754931	4.579444833149569	81.64091502195591	85.42055542245191	0	0	33.88808599754935	-33.88808599754931	4.579444833149569	81.64091502195591	85.42055542237384	0	0
11.79999999999984	0.9495618617832619	0.8340682925115475	-59.75855675425559	0	0.9399999999999999	0	2.413440081454548	1.085824092050232	-25.37343242544904	11.25005200926044	0.1963504485821983	0	0	0	3.00113010536119	2.265655911362989	-31.07635622135852	-0.9576408518089161	-0.01671398591566868	0	0	0	0	0	0	33.9090639291992	-33.90906392919916	4.5808091393358	81.65181904761555	85.41919111633115	0	0	33.9090639291992	-33.90906392919916	4.5808091393358	81.65181904761555	85.4191911162534	0	0
11.81999999999984	1.308274815808503	0.5800633439654189	-62.14756553412897	0	0.9399999999999999	0	2.305600881323473	1.075454302150234	-23.35189933211046	10.74184980257724	0.1874806468096757	0	0	0	3.097725469027266	2.243426395238002	-31.77817440982587	0.5048766413646695	0.008811759708224079	0	0	0	0	0	0	33.95334881939223	-33.9533488193922	4.583711753262642	81.67501843853601	85.41628850254382	0	0	33.95334881939223	-33.9533488193922	4.583711753262642	81.67501843853601	85.41628850246663	0	0
11.83999999999984	1.526546792507165	0.243007957437213	-64.1957081524077	0	0.9399999999999999	0	2.069819922896583	1.121985660280256	-21.19619856536437	10.46141750651554	0.1825861799144715	0	0	0	3.313956203551868	2.254441037315615	-32.24773759508776	0.3970186492912216	0.006929282621952468	0	0	0	0	0	0	33.98560757063438	-33.98560757063434	4.585829741755877	81.69194670344423	85.41417051415237	0	0	33.98560757063438	-33.98560757063434	4.585829741755877	81.69194670344423	85.41417051407562	0	0
11.85999999999984	1.559708107361188	0.04944207352951076	-65.03174342362973	0	0.9399999999999999	0	2.039729477470774	1.22414951787765	-19.74772019230559	10.10506818720913	0.176366711005334	0	0	0	3.767594525690168	1.776633461018107	-31.63032188210703	2.821289708368399	0.04924079456365917	0	0	0	0	0	0	34.05306214454778	-34.0530621445477	4.590169280622873	81.72662808014849	85.40983097549322	0	0	34.05306214454778	-34.0530621445477	4.590169280622873	81.72662808014849	85.40983097541732	0	0
11.87999999999984	1.35199534521447	-0.5677263271263079	-67.0341913790966	0	0.9399999999999999	0	1.785607893832347	1.798996028835127	-17.38589613557868	9.635212871428161	0.1681661887369585	0	0	0	3.98171561063396	0.7416032003649682	-32.57351013117582	4.801907937098957	0.08380910388002558	0	0	0	0	0	0	34.05862551099555	-34.05862551099547	4.590585357958535	81.72995517843499	85.409414898178	0	0	34.05862551099555	-34.05862551099547	4.590585357958535	81.72995517843499	85.40941489810216	0	0
11.89999999999984	1.223276754873091	-0.7562169868392655	-67.62559696532283	0	0.9399999999999999	0	1.87474606558009	2.088317160668883	-16.90412581343798	9.01093355473262	0.1572704592085209	0	0	0	4.450393158502134	-0.1063798167144445	-32.15910404634135	6.994747792295361	0.1220813793221585	0	0	0	0	0	0	34.06082891997728	-34.0608289199772	4.590750357634954	81.73127457848096	85.40924989850964	0	0	34.06082891997728	-34.0608289199772	4.590750357634954	81.73127457848096	85.40924989843386	0	0
11.91999999999983	1.098064865223246	-1.17916555151338	-68.72543950234657	0	0.9399999999999999	0	1.456756788669071	2.398595022257664	-15.97863191675035	8.204706423346419	0.1431991412469228	0	0	0	4.622120521913073	-1.112062046555016	-31.63157676841787	9.211298580433755	0.1607674886128488	0	0	0	0	0	0	34.10206234217146	-34.10206234217139	4.593418558297373	81.75259916704684	85.40658169797521	0	0	34.10206234217146	-34.10206234217139	4.593418558297373	81.75259916704684	85.40658169789988	0	0
11.93999999999983	1.033171673318653	-1.709027243817693	-69.87307720444396	0	0.9399999999999999	0	1.105605880843902	2.783329871856471	-15.36438593709402	7.805417247799525	0.1362302304660558	0	0	0	4.423513018388331	-1.99505264264099	-30.66876216044419	10.29484144168182	0.1796788791281075	0	0	0	0	0	0	34.12972660833288	-34.1297266083328	4.595210736658241	81.76692252704925	85.40478951970033	0	0	34.12972660833288	-34.1297266083328	4.595210736658241	81.76692252704925	85.40478951962531	0	0
